<?xml version="1.0" encoding="utf-8"?><svg version="1.1" id="Layer_1" xmlns="http://www.w3.org/2000/svg" xmlns:xlink="http://www.w3.org/1999/xlink" x="0px" y="0px" viewBox="0 0 122.88 88.39" style="enable-background:new 0 0 122.88 88.39" xml:space="preserve"><style type="text/css">.st0{fill-rule:evenodd;clip-rule:evenodd;}</style><g><path class="st0" d="M87.51,21.16c5.26,1.45,10.79,1.84,16.58,1.18c1.42-0.16,2.81-0.35,4.16-0.53c6.46-0.84,11.86-1.32,13.78,3.52 c3.39,8.55-4.28,27.07-8.32,34.56c-8.32,15.43-24.9,32.69-44.08,27.57c-2.99-0.8-5.68-2.1-8.08-3.86 c6.3-3.51,11.28-8.9,15.13-15.24l-0.01,0.02c4.77,0.26,9.73,2.78,14.27,5.44c0.33-5.99-5.46-9.97-10.62-12.45 c4.14-9.29,6.33-19.72,7.01-29.03C87.53,29.46,87.64,25.53,87.51,21.16L87.51,21.16z M2.61,6.51c1.56-1.48,3.92-1.87,6.6-1.7 c5.03,0.31,10.23,1.86,15.11,3.18c10.61,2.86,20.99,1.93,31.1-2.74c1.36-0.63,2.69-1.28,3.98-1.9C65.56,0.37,70.8-1.9,74.31,2.3 c6.21,7.42,4.68,28.44,3.13,37.25c-3.2,18.15-14.03,40.87-34.88,42.1c-11.06,0.65-20.49-5.57-28.61-17.32 c-5.17-8-8.9-16.22-11.18-24.67C1.13,33.5-2.46,11.34,2.61,6.51L2.61,6.51z M12.94,34.3c-1.91-0.5-3.01-1.12-3.38-1.85 c-1.47-2.92,10.66-10.29,19.22-3.52C40.95,38.4,17.26,35.58,12.94,34.3L12.94,34.3z M32.63,62.79c-3.23-2.31-4.96-5.16-5.9-9.02 c10.67,5.4,20.66,5.01,29.96-2.42c-0.37,3.29-1.44,6.24-3.28,8.83C47.98,67.83,40.04,68.08,32.63,62.79L32.63,62.79z M67.07,30.06 c1.79-0.84,2.76-1.65,2.99-2.44c0.92-3.14-12.35-8.19-19.54,0.03C40.27,39.18,63.06,32.1,67.07,30.06L67.07,30.06z M90.82,42.07 c5.04-4.04,11.94-3.22,16.74,0.73c1.22,1.01,4.57,3.95,2.64,5.56c-0.53,0.44-1.41,0.69-2.63,0.75c-2.98,0.34-7.32-0.28-10.78-1.71 C94.07,46.3,92.01,44.83,90.82,42.07L90.82,42.07z"/></g></svg>