<?xml version="1.0" encoding="utf-8"?><svg version="1.1" id="Layer_1" xmlns="http://www.w3.org/2000/svg" xmlns:xlink="http://www.w3.org/1999/xlink" x="0px" y="0px" viewBox="0 0 121 85.2" style="enable-background:new 0 0 121 85.2" xml:space="preserve"><style type="text/css"><![CDATA[
	.st0{fill-rule:evenodd;clip-rule:evenodd;}
]]></style><g><path class="st0" d="M46.26,0c5.32,0,9.63,4.31,9.63,9.63c0,5.32-4.31,9.63-9.63,9.63s-9.63-4.31-9.63-9.63 C36.63,4.31,40.94,0,46.26,0L46.26,0z M18.51,25.26c3.75,0,6.8,3.04,6.8,6.8c0,3.75-3.04,6.8-6.8,6.8s-6.8-3.04-6.8-6.8 C11.71,28.31,14.75,25.26,18.51,25.26L18.51,25.26z M9.26,42.14c0.52-0.71,1.28-1.13,2.09-1.23V40.9c4.7-0.74,9.4-0.71,14.1-0.01 c0.83,0.04,1.64,0.44,2.17,1.16c3.11,4.25,4.42,6.97,6.38,11.03c0.64,1.32,1.34,2.78,1.92,3.93c0.7,1.41,0.13,3.12-1.27,3.82 c-1.41,0.7-3.12,0.13-3.82-1.27c-0.91-1.83-1.46-2.97-1.96-4c-1.18-2.45-2.11-4.38-3.38-6.47v15.67v0.81v15.87 c0,1.61-1.38,2.93-3.06,2.93l0,0c-1.68,0-3.06-1.32-3.06-2.93V65.58h-1.9v15.87c0,1.61-1.38,2.93-3.06,2.93l0,0 c-1.68,0-3.06-1.32-3.06-2.93V65.58v-0.81V50.08c-1.26,2.12-2.22,4.11-3.43,6.61c-0.54,1.12-1.13,2.34-2.11,4.31 c-0.76,1.51-2.6,2.13-4.11,1.37c-1.51-0.76-2.13-2.6-1.37-4.11c0.62-1.24,1.38-2.81,2.06-4.24C4.5,49.64,5.91,46.71,9.26,42.14 L9.26,42.14z M102.51,15.4c3.75,0,6.8,3.04,6.8,6.8c0,3.75-3.04,6.8-6.8,6.8s-6.8-3.04-6.8-6.8C95.71,18.44,98.75,15.4,102.51,15.4 L102.51,15.4z M109.45,31.45c0.83,0.04,1.64,0.44,2.17,1.16c3.11,4.24,5.19,9.75,7.15,13.81c0.64,1.33,1.34,2.78,1.92,3.94 c0.7,1.41,0.13,3.12-1.28,3.82c-1.41,0.7-3.12,0.13-3.82-1.27c-0.91-1.82-1.46-2.96-1.96-4c-1.24-2.57-2.55-5.84-4.15-8.88v2.41 l4.78,21.12h-4.78v17.72c0,1.61-1.38,2.93-3.06,2.93l0,0c-1.68,0-3.06-1.32-3.06-2.93V63.56h-1.9v17.72c0,1.61-1.38,2.93-3.06,2.93 l0,0c-1.68,0-3.06-1.32-3.06-2.93V63.56h-4.34l4.34-20.74v-1.84c-0.61,1.28-1.09,2.56-2.07,4.59c-0.54,1.12-0.73,1.66-1.72,3.62 c-0.76,1.51-2.6,2.13-4.11,1.37c-1.51-0.76-2.13-2.6-1.37-4.11c0.62-1.24,0.98-2.12,1.67-3.55c2.11-4.38,2.17-5.63,5.51-10.2 c0.52-0.71,1.28-1.13,2.09-1.23v-0.02C99.84,30.65,104.54,30.63,109.45,31.45L109.45,31.45z M73.11,0c5.32,0,9.63,4.31,9.63,9.63 c0,5.32-4.31,9.63-9.63,9.63c-5.32,0-9.63-4.31-9.63-9.63C63.47,4.31,67.79,0,73.11,0L73.11,0z M74.43,67.09v13.99 c0,2.26,2,4.12,4.45,4.12l0,0c2.45,0,4.45-1.85,4.45-4.12V67.09h6.35l-3.14-14.88c-1.19-0.62-2.03-1.65-2.43-2.84 c-0.4-1.2-0.34-2.55,0.27-3.77c0.19-0.38,0.36-0.74,0.53-1.1l-1.89-8.98v-0.79c1.3,2.14,2.35,4.16,3.46,6.4 c0.34-0.73,0.63-1.4,0.9-2.01c0.98-2.24,1.68-3.82,3.83-6.84c-1.36-2.4-2.92-4.84-5.09-7.8c-0.77-1.05-1.94-1.63-3.15-1.69 c-6.73-1.22-13.15-1.18-19.28,0.01v0.03c-0.98,0.08-1.92,0.5-2.63,1.24c2.02,2.8,3.5,5.17,4.81,7.5c1.41,2.52,2.62,5.02,4.06,8.01 c0.46,0.96,0.95,1.98,1.43,2.96c0.54,1.11,1.02,2.09,1.35,2.75c0.7,1.4,0.76,2.94,0.31,4.31c-0.46,1.37-1.44,2.57-2.83,3.27 c-1.39,0.7-2.94,0.76-4.31,0.31c-1.37-0.46-2.57-1.44-3.27-2.83c-0.57-1.14-3.16-6.46-3.56-7.26l-1.65,24.01h5.99v13.99 c0,2.26,2,4.12,4.45,4.12l0,0c2.45,0,4.45-1.85,4.45-4.12V67.09H74.43L74.43,67.09z M47.28,57.54v23.54c0,2.26,2,4.12,4.45,4.12 l0,0c2.45,0,4.45-1.85,4.45-4.12V57.54h0v-23.1c1.85,3.04,3.2,5.85,4.92,9.41c0.73,1.51,1.53,3.17,2.86,5.82 c1.02,2.05,3.51,2.88,5.56,1.85c2.04-1.02,2.88-3.51,1.85-5.56c-0.84-1.68-1.86-3.79-2.79-5.72c-2.85-5.91-4.76-9.88-9.29-16.05 c-0.77-1.05-1.93-1.63-3.13-1.69c-3.33-0.79-20.06-2.33-23,1.69c-4.16,5.68-6.11,9.48-8.62,14.66c0.39,0.05,0.77,0.1,1.15,0.16 c0.65,0.05,1.29,0.24,1.87,0.55c0.61,0.33,1.16,0.79,1.59,1.38c0.81,1.11,1.51,2.12,2.12,3.07l0.07-0.15 c1.9-3.94,3.35-6.95,5.52-10.38v21.18c0.29,0.59,0.55,1.12,0.75,1.53c0.58,1.17,0.64,2.46,0.26,3.61 c-0.21,0.63-0.55,1.22-1.01,1.71v19.58c0,2.26,2,4.12,4.45,4.12l0,0c2.45,0,4.45-1.85,4.45-4.12V57.54H47.28L47.28,57.54z"/></g></svg>