<?xml version="1.0" encoding="utf-8"?><svg version="1.1" id="Layer_1" xmlns="http://www.w3.org/2000/svg" xmlns:xlink="http://www.w3.org/1999/xlink" x="0px" y="0px" viewBox="0 0 122.88 77.13" style="enable-background:new 0 0 122.88 77.13" xml:space="preserve"><g><path d="M69.98,14.08c1.32,0,2.55,0.39,3.58,1.07v-1.77c0-1.81,0.74-3.45,1.93-4.64c1.19-1.19,2.83-1.93,4.64-1.93 c0,0,0.01,0,0.01,0c1.34,0,2.65,0.41,3.75,1.18l0-1.43c0-1.81,0.74-3.45,1.93-4.64C86.99,0.74,88.63,0,90.44,0 c1.81,0,3.45,0.74,4.64,1.93c1.19,1.19,1.93,2.83,1.93,4.64v1.45c1.05-0.72,2.32-1.14,3.68-1.14c1.81,0,3.45,0.74,4.64,1.93 c1.19,1.19,1.93,2.83,1.93,4.64v31.21c0.08,0.54,0.13,1.09,0.13,1.64v0v1.84l0.16-0.15c1.13-1.06,2.23-2.17,2.65-2.58 c2.8-2.8,5.82-3.4,8.21-2.64c1.08,0.34,2.02,0.95,2.75,1.76c0.73,0.81,1.27,1.81,1.53,2.93c0.63,2.65-0.22,5.99-3.52,8.95 l-0.05,0.05l0,0l-0.01,0.01c-3.89,3.92-14.64,16.47-20.97,18.99c-7.83,3.12-23.6,1.94-29.49-4.02c-3.25-3.29-5.25-7.83-5.25-12.82 c0-12.66,0-25.3,0-37.97c0-1.81,0.74-3.45,1.93-4.64C66.52,14.82,68.17,14.08,69.98,14.08L69.98,14.08L69.98,14.08z M52.9,14.08 c-1.32,0-2.55,0.39-3.58,1.07v-1.77c0-1.81-0.74-3.45-1.93-4.64c-1.19-1.19-2.83-1.93-4.64-1.93c0,0-0.01,0-0.01,0 c-1.34,0-2.65,0.41-3.75,1.18l0-1.43c0-1.81-0.74-3.45-1.93-4.64C35.89,0.74,34.24,0,32.44,0c-1.81,0-3.45,0.74-4.64,1.93 c-1.19,1.19-1.93,2.83-1.93,4.64v1.45c-1.05-0.71-2.32-1.14-3.68-1.14c-1.81,0-3.45,0.74-4.64,1.93c-1.19,1.19-1.93,2.83-1.93,4.64 v31.21c-0.08,0.54-0.13,1.09-0.13,1.64v0v1.84l-0.16-0.15c-1.13-1.06-2.23-2.17-2.65-2.58c-2.8-2.8-5.82-3.4-8.21-2.64 c-1.08,0.34-2.02,0.95-2.75,1.76c-0.73,0.81-1.27,1.81-1.53,2.93c-0.63,2.65,0.22,5.99,3.52,8.95l0.05,0.05l0,0l0.01,0.01 c3.89,3.92,14.64,16.47,20.97,18.99c7.83,3.12,23.6,1.94,29.49-4.02c3.25-3.29,5.25-7.83,5.25-12.82c0-12.66,0-25.3,0-37.97 c0-1.81-0.74-3.45-1.93-4.64C56.36,14.82,54.71,14.08,52.9,14.08L52.9,14.08L52.9,14.08z M56.49,46c0,0.1,0.01,0.2,0.01,0.31v12.31 c0,4.19-1.67,7.99-4.38,10.73c-5.02,5.08-19.62,5.99-26.27,3.35C20.19,70.45,8.76,57.27,5.89,54.37c-0.05-0.05-0.09-0.1-0.15-0.15 l-0.99,1.12l0.99-1.11c-2.39-2.12-3.05-4.37-2.64-6.08c0.15-0.62,0.44-1.17,0.83-1.61c0.39-0.43,0.89-0.76,1.45-0.94 c1.42-0.45,3.3,0,5.2,1.91c0.43,0.43,1.59,1.59,2.72,2.65c1.06,1,2.16,1.95,2.87,2.36c0.24,0.16,0.53,0.25,0.82,0.25c0,0,0,0,0,0 l1.18-0.58l0.35-5.88c0-11,0.08-21.82,0.08-32.85c0-0.98,0.4-1.88,1.05-2.53c0.65-0.65,1.54-1.05,2.53-1.05 c0.98,0,1.88,0.4,2.53,1.05c0.65,0.65,1.05,1.54,1.05,2.53v21.41h3.09V6.57c0-0.98,0.4-1.88,1.05-2.53 c0.65-0.65,1.54-1.05,2.53-1.05c0.98,0,1.88,0.4,2.53,1.05c0.65,0.65,1.05,1.54,1.05,2.53v28.29h3.16V13.38 c0-0.98,0.4-1.88,1.05-2.53c0.65-0.65,1.55-1.05,2.53-1.05c0.98,0,1.88,0.4,2.53,1.05c0.65,0.65,1.05,1.55,1.05,2.53v21.48h2.99 l0-14.21c0-0.98,0.4-1.88,1.05-2.53c0.65-0.65,1.55-1.05,2.53-1.05c0.98,0,1.88,0.4,2.53,1.05c0.65,0.65,1.05,1.55,1.05,2.53v14.21 v2.21V46L56.49,46z M56.49,38.68L56.49,38.68L56.49,38.68L56.49,38.68L56.49,38.68L56.49,38.68z M66.39,46 c0,0.1-0.01,0.2-0.01,0.31v12.31c0,4.19,1.67,7.99,4.38,10.73c5.02,5.08,19.62,5.99,26.27,3.35c5.65-2.25,17.08-15.43,19.95-18.33 c0.05-0.05,0.09-0.1,0.15-0.15l0.99,1.12l-0.99-1.11c2.39-2.12,3.05-4.37,2.64-6.08c-0.15-0.62-0.44-1.17-0.83-1.61 c-0.39-0.43-0.89-0.76-1.45-0.94c-1.42-0.45-3.3,0-5.2,1.9c-0.43,0.43-1.59,1.59-2.72,2.65c-1.06,1-2.16,1.95-2.87,2.36 c-0.24,0.16-0.53,0.25-0.82,0.25c0,0,0,0,0,0l-1.18-0.58l-0.35-5.88c0-11-0.08-21.82-0.08-32.85c0-0.98-0.4-1.88-1.05-2.53 c-0.65-0.65-1.54-1.05-2.53-1.05c-0.98,0-1.88,0.4-2.53,1.05c-0.65,0.65-1.05,1.54-1.05,2.53v21.41h-3.09V6.57 c0-0.98-0.4-1.88-1.05-2.53c-0.65-0.65-1.54-1.05-2.53-1.05c-0.98,0-1.88,0.4-2.53,1.05c-0.65,0.65-1.05,1.54-1.05,2.53v28.29H83.7 V13.38c0-0.98-0.4-1.88-1.05-2.53C82,10.2,81.11,9.8,80.12,9.8c-0.98,0-1.88,0.4-2.53,1.05c-0.65,0.65-1.05,1.55-1.05,2.53v21.48 h-2.99l0-14.21c0-0.98-0.4-1.88-1.05-2.53c-0.65-0.65-1.54-1.05-2.53-1.05c-0.98,0-1.88,0.4-2.53,1.05 c-0.65,0.65-1.05,1.55-1.05,2.53v14.21v2.21V46L66.39,46z M66.39,38.68L66.39,38.68L66.39,38.68L66.39,38.68L66.39,38.68 L66.39,38.68z"/></g></svg>