<?xml version="1.0" encoding="utf-8"?><svg version="1.1" id="Layer_1" xmlns="http://www.w3.org/2000/svg" xmlns:xlink="http://www.w3.org/1999/xlink" x="0px" y="0px" viewBox="0 0 122.88 119.74" style="enable-background:new 0 0 122.88 119.74" xml:space="preserve"><style type="text/css">.st0{fill-rule:evenodd;clip-rule:evenodd;}</style><g><path class="st0" d="M3.69,33.16l8.14-24.5V1.61c0-0.89,0.72-1.61,1.61-1.61s1.61,0.72,1.61,1.61v5.98l8.64,25.57v11.97h4.11 l-3.98,11.94V72.4h15.16c-10.27-20.04,12.18-24.09,21.2-35.9V34c-0.82-0.14-1.63-0.44-2.42-0.89c-1.75-1.01-2.87-2.48-3.38-4.41 c-0.51-1.93-0.26-3.77,0.76-5.53c0.75-1.29,1.88-2.3,3.41-3.01c-1.86,2.1-3.11,3.52-2.28,6.64c0.45,1.67,1.42,2.95,2.93,3.81 c1.49,0.86,3.08,1.07,4.75,0.63c3.15-0.82,3.71-2.62,4.61-5.3l0,0c0.04,0.78,0.05,1.28,0.03,1.51c-0.09,1.07-0.41,2.07-0.95,3.01 c-1,1.73-2.47,2.86-4.4,3.37c-0.13,0.04-0.26,0.07-0.39,0.09v2.62c9.3,12.65,30.71,16.14,21.18,35.85h14.21V57.07l-3.2-11.94h3.69 V33.16l8.14-24.5V1.61c0-0.89,0.72-1.61,1.61-1.61c0.89,0,1.61,0.72,1.61,1.61v5.98l8.64,25.57v11.97h4.11l-3.98,11.94v62.66H98.43 h-0.16H71.6v-18.85c0-4.39-3.6-7.99-7.99-7.99h-4.2c-4.39,0-7.99,3.6-7.99,7.99v18.85H23.83H23.5H3.2V57.07L0,45.13h3.69V33.16 L3.69,33.16z M61.48,25.02l1.05-1.82l-1.4-1.57l2.05,0.44l1.05-1.82l0.22,2.09l2.06,0.45l-1.92,0.85l0.22,2.09l-1.42-1.57 L61.48,25.02L61.48,25.02L61.48,25.02z M105.25,36.49h7.45v5.88h-7.45V36.49L105.25,36.49z M10.18,36.49h7.45v5.88h-7.45V36.49 L10.18,36.49z"/></g></svg>