<?xml version="1.0" encoding="utf-8"?><svg version="1.1" id="Layer_1" xmlns="http://www.w3.org/2000/svg" xmlns:xlink="http://www.w3.org/1999/xlink" x="0px" y="0px" viewBox="0 0 98.29 122.88" style="enable-background:new 0 0 98.29 122.88" xml:space="preserve"><style type="text/css">.st0{fill-rule:evenodd;clip-rule:evenodd;}</style><g><path class="st0" d="M40.4,19.19c-0.58,0.02-1.02,0.14-1.31,0.34c-0.17,0.11-0.3,0.26-0.38,0.44c-0.09,0.19-0.13,0.43-0.12,0.7 c0.02,0.79,0.44,1.83,1.24,3.03l0.01,0.02l2.61,4.15c1.05,1.66,2.14,3.36,3.5,4.6c1.31,1.2,2.9,2.01,5,2.01 c2.28,0.01,3.94-0.84,5.29-2.1c1.41-1.32,2.51-3.12,3.61-4.92l2.94-4.84c0.55-1.25,0.75-2.09,0.62-2.58 c-0.07-0.29-0.4-0.44-0.95-0.46c-0.12-0.01-0.24-0.01-0.36,0c-0.13,0-0.27,0.01-0.41,0.03c-0.08,0.01-0.15,0-0.23-0.01 c-0.26,0.01-0.53,0-0.81-0.04l1.01-4.45c-7.47,1.18-13.05-4.37-20.94-1.11l0.57,5.25C40.99,19.24,40.69,19.23,40.4,19.19 L40.4,19.19L40.4,19.19L40.4,19.19z M49.64,89c3.91,0,7.07,3.17,7.07,7.07s-3.17,7.07-7.07,7.07s-7.07-3.17-7.07-7.07 S45.73,89,49.64,89L49.64,89z M10.97,59.09c-0.12,0.02-0.25,0.03-0.38,0.03c-0.13,0-0.25-0.01-0.38-0.03H5.06 c-0.06,0-0.12,0.02-0.17,0.05l-0.04,0.04c-0.05,0.05-0.09,0.13-0.09,0.21v11.56c0,0.06,0.02,0.12,0.05,0.17l0.04,0.04 c0.05,0.05,0.13,0.09,0.21,0.09h6.41c0.11-0.01,0.21-0.02,0.33-0.02c0.11,0,0.22,0.01,0.33,0.02h75.22 c0.11-0.01,0.21-0.02,0.33-0.02c0.11,0,0.22,0.01,0.32,0.02h5.23c0.08,0,0.16-0.03,0.21-0.08c0.05-0.05,0.08-0.13,0.08-0.21V59.39 c0-0.08-0.03-0.15-0.09-0.21c-0.05-0.05-0.13-0.09-0.21-0.09L10.97,59.09L10.97,59.09L10.97,59.09z M8.21,54.32V35.8 c0-0.61,0.23-1.17,0.61-1.6l6.8-8.55c-0.72-1.13-1.14-2.48-1.14-3.92c0-4.03,3.27-7.3,7.3-7.3c4.03,0,7.3,3.27,7.3,7.3 c0,4.03-3.27,7.3-7.3,7.3c-0.85,0-1.67-0.15-2.43-0.42l-6.37,8.01v17.7h10.13c-0.07-0.24-0.12-0.5-0.15-0.78 c0.09-7.3-1.02-8.66,6.66-12.94c2.81-1.57,10.07-2.1,13.24-4.18c0.48-0.91,1.02-2.54,1.34-3.51l0.03-0.1 c-1.16-1.25-2.11-2.73-3.03-4.18l-2.61-4.15c-0.95-1.42-1.45-2.72-1.48-3.79c-0.01-0.5,0.07-0.96,0.26-1.36 c0.19-0.42,0.49-0.77,0.9-1.04c0.19-0.13,0.4-0.23,0.63-0.32c-0.17-2.25-0.23-5.08-0.12-7.46c0.06-0.56,0.16-1.13,0.32-1.69 c0.95-3.41,3.89-5.87,7.24-7.03c1.62-0.56,1-1.9,2.64-1.81c3.89,0.21,9.9,2.72,12.21,5.38c3.23,3.73,2.4,8.32,2.29,12.87v0 c0.72,0.22,1.19,0.68,1.38,1.42c0.21,0.82-0.02,1.98-0.71,3.56l0,0c-0.01,0.03-0.03,0.06-0.04,0.08l-2.97,4.9 c-1.15,1.89-2.31,3.78-3.86,5.23l-0.08,0.07c0.15,0.21,0.31,0.45,0.48,0.7c0.52,0.76,1.1,1.62,1.65,2.29 c3.23,2.01,10.34,2.55,13.11,4.1c7.07,3.94,5.32,6.05,5.83,12.94c-0.03,0.28-0.08,0.54-0.15,0.78l15.12,0 c1.39,0,2.66,0.57,3.58,1.49c0.92,0.92,1.49,2.18,1.49,3.58v11.56c0,1.39-0.57,2.65-1.49,3.57l-0.01,0.01 c-0.92,0.92-2.18,1.49-3.57,1.49l-3.18,0v43.03c0,1.06-0.43,2.02-1.13,2.71c-0.69,0.69-1.66,1.13-2.71,1.13l-72.94,0 c-1.06,0-2.03-0.43-2.72-1.13c-0.07-0.07-0.13-0.13-0.18-0.21c-0.59-0.68-0.95-1.56-0.95-2.52l0-43.01H5.06 c-1.39,0-2.66-0.57-3.58-1.49c-0.06-0.06-0.11-0.12-0.16-0.18C0.5,73.45,0,72.26,0,70.95V59.39c0-1.39,0.57-2.66,1.49-3.58 c0.06-0.06,0.12-0.11,0.18-0.17c0.9-0.82,2.1-1.32,3.39-1.32L8.21,54.32L8.21,54.32L8.21,54.32z M14.18,76.01v42.1h71.1v-42.1 H14.18L14.18,76.01z M45.65,41.06c-1.32-1.5-1.43-3.06,0-4.72c1.65,0.42,3.16,1.13,4.55,2.1c0.3-0.13,0.65-0.18,0.99-0.16 c1.45-1.03,3.29-1.44,4.91-2.21c1.93,1.88,1.72,3.6-0.17,5.21c-1.06-0.24-2.06-0.62-3.03-1.11c-0.02,0.25-0.09,0.52-0.21,0.81 l2.1,9.98c1.6-3.37,3.26-8.72,3.69-13.06c-0.7-0.78-1.45-1.88-2.09-2.82c-0.14-0.21-0.28-0.41-0.42-0.61 c-1.36,0.92-2.99,1.48-5.02,1.48c-2.27-0.01-4.03-0.78-5.5-1.97c-0.41,1.23-1.01,2.92-1.6,3.72c-0.04,0.06-0.09,0.11-0.15,0.16 c0.77,4.72,2.42,9.85,3.92,13.1l2.1-9.98c-0.31-0.52-0.43-0.96-0.41-1.33C48.19,40.33,46.95,40.77,45.65,41.06L45.65,41.06 L45.65,41.06z"/></g></svg>